<svg width="61" height="70" viewBox="0 0 61 70" fill="none" xmlns="http://www.w3.org/2000/svg">
<path d="M18.9375 0.5625V3.64844H5.22656V29H1.47656V0.5625H18.9375ZM48.575 19.5664L56.0945 0.5625H60.4305L50.3719 24.2539C50.0854 24.918 49.7664 25.5625 49.4148 26.1875C49.0633 26.7995 48.6336 27.3464 48.1258 27.8281C47.618 28.3099 46.9865 28.694 46.2313 28.9805C45.4891 29.2669 44.5646 29.4102 43.4578 29.4102C43.1453 29.4102 42.7742 29.3906 42.3445 29.3516C41.9148 29.3255 41.6349 29.293 41.5047 29.2539L41.6219 26.2461C41.7651 26.2721 42.0451 26.2982 42.4617 26.3242C42.8784 26.3372 43.1844 26.3438 43.3797 26.3438C44.1219 26.3438 44.7078 26.194 45.1375 25.8945C45.5672 25.5951 45.9122 25.2174 46.1727 24.7617C46.4461 24.293 46.6935 23.8177 46.9148 23.3359L48.575 19.5664ZM42.1883 0.5625L50.0984 18.2773L51.0359 21.7734L47.8719 22.0078L37.9695 0.5625H42.1883ZM18.4688 59.957H22.2188C22.0234 61.7539 21.5091 63.362 20.6758 64.7812C19.8424 66.2005 18.6641 67.3268 17.1406 68.1602C15.6172 68.9805 13.7161 69.3906 11.4375 69.3906C9.77083 69.3906 8.25391 69.0781 6.88672 68.4531C5.53255 67.8281 4.36719 66.9427 3.39062 65.7969C2.41406 64.638 1.65885 63.2513 1.125 61.6367C0.604167 60.0091 0.34375 58.1992 0.34375 56.207V53.375C0.34375 51.3828 0.604167 49.5794 1.125 47.9648C1.65885 46.3372 2.42057 44.944 3.41016 43.7852C4.41276 42.6263 5.61719 41.7344 7.02344 41.1094C8.42969 40.4844 10.0117 40.1719 11.7695 40.1719C13.918 40.1719 15.7344 40.5755 17.2188 41.3828C18.7031 42.1901 19.8555 43.3099 20.6758 44.7422C21.5091 46.1615 22.0234 47.8086 22.2188 49.6836H18.4688C18.2865 48.3555 17.9479 47.2161 17.4531 46.2656C16.9583 45.3021 16.2552 44.5599 15.3438 44.0391C14.4323 43.5182 13.2409 43.2578 11.7695 43.2578C10.5065 43.2578 9.39323 43.4987 8.42969 43.9805C7.47917 44.4622 6.67839 45.1458 6.02734 46.0312C5.38932 46.9167 4.90755 47.9779 4.58203 49.2148C4.25651 50.4518 4.09375 51.8255 4.09375 53.3359V56.207C4.09375 57.6003 4.23698 58.9089 4.52344 60.1328C4.82292 61.3568 5.27214 62.431 5.87109 63.3555C6.47005 64.2799 7.23177 65.0091 8.15625 65.543C9.08073 66.0638 10.1745 66.3242 11.4375 66.3242C13.0391 66.3242 14.3151 66.0703 15.2656 65.5625C16.2161 65.0547 16.9323 64.3255 17.4141 63.375C17.9089 62.4245 18.2604 61.2852 18.4688 59.957ZM42.9094 52.1445H50.6633C52.7466 52.1445 54.5044 52.4961 55.9367 53.1992C57.369 53.8893 58.4562 54.8594 59.1984 56.1094C59.9406 57.3594 60.3117 58.8242 60.3117 60.5039C60.3117 61.7539 60.1034 62.8997 59.6867 63.9414C59.2701 64.9701 58.6516 65.8685 57.8312 66.6367C57.0109 67.3919 56.0018 67.9779 54.8039 68.3945C53.606 68.7982 52.2258 69 50.6633 69H40.0383V40.5625H43.8078V65.9336H50.6633C52.0565 65.9336 53.1828 65.6797 54.0422 65.1719C54.9146 64.651 55.5526 63.974 55.9562 63.1406C56.3599 62.3073 56.5617 61.4154 56.5617 60.4648C56.5617 59.5143 56.3599 58.6419 55.9562 57.8477C55.5526 57.0534 54.9146 56.4219 54.0422 55.9531C53.1828 55.4714 52.0565 55.2305 50.6633 55.2305H42.9094V52.1445Z" fill="#DFDEDF"/>
</svg>
